<svg id="svg" version="1.1" width="400" height="400" viewBox="0 0 400 400" xmlns="http://www.w3.org/2000/svg" xmlns:xlink="http://www.w3.org/1999/xlink" ><g id="svgg"><path id="path0" d="M120.000 218.753 L 120.000 264.305 123.712 267.854 C 132.432 276.191,148.539 287.035,155.100 288.986 L 156.000 289.254 156.000 231.227 L 156.000 173.200 138.000 173.200 L 120.000 173.200 120.000 218.753 M182.000 235.159 L 182.000 297.117 185.500 297.659 C 187.809 298.016,192.743 298.200,200.000 298.200 C 207.257 298.200,212.191 298.016,214.500 297.659 L 218.000 297.117 218.000 235.159 L 218.000 173.200 200.000 173.200 L 182.000 173.200 182.000 235.159 M244.000 231.227 L 244.000 289.254 244.900 288.986 C 251.461 287.035,267.568 276.191,276.288 267.854 L 280.000 264.305 280.000 218.753 L 280.000 173.200 262.000 173.200 L 244.000 173.200 244.000 231.227 " stroke="none" fill="#045bfb" fill-rule="evenodd"></path><path id="path1" d="M109.729 44.185 C 80.275 62.456,56.300 90.791,42.828 123.250 C 39.923 130.251,39.969 128.945,42.367 136.227 C 52.203 166.089,52.179 211.123,42.311 241.153 L 40.289 247.306 42.224 252.153 C 65.529 310.514,120.925 351.791,183.975 357.776 C 258.566 364.856,330.140 321.359,357.776 252.153 L 359.711 247.306 357.689 241.153 C 347.821 211.123,347.797 166.089,357.633 136.227 C 360.031 128.945,360.077 130.251,357.172 123.250 C 345.474 95.066,326.235 70.359,301.721 52.043 C 296.588 48.207,287.168 42.003,285.564 41.402 C 285.074 41.218,283.937 42.883,280.594 48.682 C 278.209 52.817,273.162 61.510,269.377 68.000 C 253.427 95.347,254.732 92.946,255.503 93.512 C 255.886 93.793,258.202 95.339,260.648 96.947 C 273.680 105.512,286.695 119.007,293.781 131.300 L 294.876 133.200 200.000 133.200 L 105.124 133.200 106.219 131.300 C 113.305 119.007,126.320 105.512,139.352 96.947 C 141.798 95.339,144.114 93.793,144.497 93.512 C 145.268 92.946,146.573 95.347,130.623 68.000 C 126.838 61.510,121.795 52.825,119.417 48.700 C 117.038 44.575,114.968 41.200,114.816 41.200 C 114.665 41.200,112.375 42.543,109.729 44.185 M300.209 188.900 C 300.218 205.342,300.546 210.092,302.442 221.255 L 303.233 225.913 301.739 229.656 C 297.404 240.518,289.753 252.879,282.394 260.910 C 281.077 262.347,280.000 263.699,280.000 263.914 C 280.000 264.472,273.195 270.904,269.188 274.134 C 262.271 279.709,246.552 289.200,244.236 289.200 C 243.917 289.200,241.860 289.900,239.665 290.756 C 233.094 293.316,227.122 294.965,215.200 297.511 C 210.859 298.438,189.141 298.438,184.800 297.511 C 172.878 294.965,166.906 293.316,160.335 290.756 C 158.140 289.900,156.083 289.200,155.764 289.200 C 153.448 289.200,137.729 279.709,130.812 274.134 C 126.805 270.904,120.000 264.472,120.000 263.914 C 120.000 263.699,118.923 262.347,117.606 260.910 C 110.247 252.879,102.596 240.518,98.261 229.656 L 96.767 225.913 97.558 221.255 C 99.454 210.092,99.782 205.342,99.791 188.900 L 99.800 173.200 200.000 173.200 L 300.200 173.200 300.209 188.900 " stroke="none" fill="#040404" fill-rule="evenodd"></path></g></svg>