<svg id="Black" xmlns="http://www.w3.org/2000/svg" width="742.41" height="664.125" viewBox="0 0 742.41 664.125">
  <metadata><?xpacket begin="﻿" id="W5M0MpCehiHzreSzNTczkc9d"?>
<x:xmpmeta xmlns:x="adobe:ns:meta/" x:xmptk="Adobe XMP Core 5.6-c140 79.160451, 2017/05/06-01:08:21        ">
   <rdf:RDF xmlns:rdf="http://www.w3.org/1999/02/22-rdf-syntax-ns#">
      <rdf:Description rdf:about=""/>
   </rdf:RDF>
</x:xmpmeta>
                                                                                                    
                                                                                                    
                                                                                                    
                                                                                                    
                                                                                                    
                                                                                                    
                                                                                                    
                                                                                                    
                                                                                                    
                                                                                                    
                                                                                                    
                                                                                                    
                                                                                                    
                                                                                                    
                                                                                                    
                                                                                                    
                                                                                                    
                                                                                                    
                                                                                                    
                                                                                                    
                           
<?xpacket end="w"?></metadata>
<defs>
    <style>
      .cls-1, .cls-2 {
        stroke: #fff;
        stroke-width: 0;
      }

      .cls-1, .cls-3, .cls-4 {
        fill-rule: evenodd;
      }

      .cls-3 {
        fill: #fff;
      }
    </style>
  </defs>
  <g id="Color_Logo" data-name="Color Logo">
    <g id="Outside">
      <path id="Bottom" class="cls-1" d="M1635.18,691L1687,781H1129l51.82-90h454.36Z" transform="translate(-1129 -157.875)"/>
      <path id="Right" class="cls-1" d="M1767.48,822L1540.44,428.759l52.03-90.88L1871.4,822H1767.48Z" transform="translate(-1129 -157.875)"/>
      <path id="Left" class="cls-1" d="M1360.52,641H1256.6l277.93-483.121,53.03,91.88Z" transform="translate(-1129 -157.875)"/>
    </g>
    <circle id="Circle" class="cls-2" cx="383" cy="429.125" r="75"/>
    <path id="Triangle" class="cls-1" d="M1418,641l94-162,94,162H1418Z" transform="translate(-1129 -157.875)"/>
    <circle id="Circle-2" data-name="Circle" class="cls-2" cx="383" cy="429.125" r="22"/>
  </g>
  <path id="APOLLO" class="cls-3" d="M1228.69,718.635h-3.55l-15.32,33.843h3.89l3.99-8.881h18.29l3.93,8.881H1244Zm5.81,21.554h-15.32l7.68-17.137Zm79.76-10.609c0-6.672-4.99-10.705-12.58-10.705H1289.1v33.6h3.8V740.621h8.16C1308.21,740.621,1314.26,736.877,1314.26,729.58Zm-3.84.144c0,4.465-3.65,7.441-9.22,7.441h-8.3V722.38h8.49C1306.82,722.38,1310.42,724.876,1310.42,729.724Zm81.87,5.9c0-9.313-6.86-17.33-17.09-17.33s-17.18,8.113-17.18,17.426,6.86,17.329,17.09,17.329S1392.29,744.941,1392.29,735.629Zm-3.94.1c0,7.68-5.47,13.825-13.15,13.825s-13.25-6.241-13.25-13.921,5.47-13.826,13.16-13.826S1388.35,728.044,1388.35,735.725Zm50.55,16.753h22.71v-3.5H1442.7v-30.1h-3.8v33.6Zm68.4,0h22.71v-3.5H1511.1v-30.1h-3.8v33.6Zm99.19-16.849c0-9.313-6.86-17.33-17.09-17.33s-17.18,8.113-17.18,17.426,6.86,17.329,17.09,17.329S1606.49,744.941,1606.49,735.629Zm-3.94.1c0,7.68-5.47,13.825-13.15,13.825s-13.25-6.241-13.25-13.921,5.47-13.826,13.16-13.826S1602.55,728.044,1602.55,735.725Z" transform="translate(-1129 -157.875)"/>
  <path id="STUDIO" class="cls-4" d="M1166.25,805.729c0-1.92,1.74-3.42,4.47-3.42a9.224,9.224,0,0,1,6.06,2.28l1.38-1.83a10.956,10.956,0,0,0-7.38-2.58c-3.99,0-6.9,2.4-6.9,5.76,0,3.48,2.22,5.04,7.05,6.089,4.41,0.93,5.46,2.04,5.46,4.02,0,2.13-1.86,3.6-4.68,3.6a10,10,0,0,1-7.2-2.97l-1.47,1.74a12.288,12.288,0,0,0,8.58,3.36c4.17,0,7.17-2.34,7.17-5.97,0-3.24-2.16-4.949-6.84-5.969C1167.33,808.849,1166.25,807.739,1166.25,805.729Zm100.12-3.06h7.05v-2.19h-16.5v2.19h7.05v18.809h2.4V802.669Zm103.21-2.19h-2.37v12.209c0,4.59-2.46,6.93-6.33,6.93-4.02,0-6.42-2.55-6.42-7.08V800.479h-2.37v12.209c0,5.94,3.54,9.12,8.73,9.12,5.25,0,8.76-3.18,8.76-9.3V800.479Zm99.29,10.47c0-5.94-4.56-10.47-11.16-10.47h-7.29v21h7.29C1464.31,821.478,1468.87,816.888,1468.87,810.949Zm-2.46.06c0,4.679-3.39,8.279-8.7,8.279h-4.92V802.669h4.92C1463.02,802.669,1466.41,806.329,1466.41,811.009Zm82.22-10.53v21H1551v-21h-2.37Zm104.28,10.47a10.711,10.711,0,1,0-10.74,10.889A10.547,10.547,0,0,0,1652.91,810.949Zm-2.46.06c0,4.8-3.42,8.639-8.22,8.639s-8.28-3.9-8.28-8.7,3.42-8.64,8.22-8.64S1650.45,806.209,1650.45,811.009Z" transform="translate(-1129 -157.875)"/>
</svg>
