<?xml version="1.0" standalone="no"?>
<svg xmlns="http://www.w3.org/2000/svg" xmlns:xlink="http://www.w3.org/1999/xlink" style="isolation:isolate" viewBox="86.5 102.78 827 794.44"
  width="827" height="794.44">
  <g>
    <path d=" M 602.46 759.1 C 633.77 745.82 662.24 726.62 686.28 702.56 C 710.34 678.52 729.54 650.05 742.82 618.74 C 749.54 602.85 754.68 586.33 758.14 569.43 C 761.71 551.94 763.51 534.13 763.5 516.28 C 763.51 498.43 761.71 480.62 758.14 463.13 C 754.68 446.23 749.54 429.71 742.82 413.82 C 729.54 382.51 710.34 354.04 686.28 330 C 662.24 305.94 633.77 286.74 602.46 273.46 C 586.57 266.74 570.05 261.6 553.15 258.14 C 535.66 254.57 517.85 252.77 500 252.78 C 482.15 252.77 464.34 254.57 446.85 258.14 C 429.95 261.6 413.43 266.74 397.54 273.46 C 366.23 286.74 337.76 305.94 313.72 330 C 289.66 354.04 270.46 382.51 257.18 413.82 C 250.46 429.71 245.32 446.23 241.86 463.12 C 238.29 480.61 236.49 498.42 236.5 516.28 C 236.49 534.13 238.29 551.94 241.86 569.43 C 245.32 586.33 250.46 602.85 257.18 618.74 C 270.46 650.05 289.66 678.52 313.72 702.56 C 337.76 726.62 366.23 745.82 397.54 759.1 C 397.5 759.155 339.094 897.249 339.04 897.22 C 289.95 876.42 245.34 846.33 207.66 808.62 C 169.95 770.94 139.86 726.33 119.06 677.24 C 108.45 652.19 100.36 626.15 94.9 599.5 C 89.31 572.11 86.49 544.23 86.5 516.28 C 86.49 488.33 89.3 460.46 94.9 433.08 C 100.36 406.41 108.45 380.37 119.06 355.32 C 139.86 306.23 169.95 261.62 207.66 223.94 C 245.34 186.23 289.95 156.14 339.04 135.34 C 364.09 124.73 390.13 116.64 416.78 111.18 C 444.17 105.59 472.05 102.77 500 102.78 C 527.95 102.77 555.83 105.59 583.22 111.18 C 609.87 116.64 635.91 124.73 660.96 135.34 C 710.05 156.14 754.66 186.23 792.34 223.94 C 830.05 261.62 860.14 306.23 880.94 355.32 C 891.55 380.37 899.64 406.41 905.1 433.06 C 910.69 460.45 913.51 488.33 913.5 516.28 C 913.51 544.23 910.69 572.11 905.1 599.5 C 899.64 626.15 891.55 652.19 880.94 677.24 C 860.14 726.33 830.05 770.94 792.34 808.62 C 754.66 846.33 710.05 876.42 660.96 897.22 C 661 897.28 602.531 759.249 602.46 759.1 Z "
      fill="rgb(0,0,0)" />
    <path d=" M 313.72 516.28 Q 689.156 516.468 689.121 516.28 C 689.121 619.875 605.015 704.401 501.421 704.401 C 397.826 704.401 313.72 619.875 313.72 516.28 L 313.72 516.28 Z "
      fill="rgb(0,0,0)" />
  </g>
</svg>